HIERARCHY
ROOT Hips
{
 OFFSET 0.000000 0.000000 0.000000
 CHANNELS 6 Xposition Yposition Zposition Yrotation Xrotation Zrotation
 JOINT Chest
 {
  OFFSET 0.000000 9.585900 0.002600
  CHANNELS 3 Yrotation Xrotation Zrotation
  JOINT Chest2
  {
   OFFSET 0.000000 9.601200 -0.005300
   CHANNELS 3 Yrotation Xrotation Zrotation
   JOINT Chest3
   {
    OFFSET 0.000000 9.561800 0.000000
    CHANNELS 3 Yrotation Xrotation Zrotation
    JOINT Chest4
    {
     OFFSET 0.000000 9.552100 0.000000
     CHANNELS 3 Yrotation Xrotation Zrotation
     JOINT Neck
     {
      OFFSET 0.000000 14.453000 0.000000
      CHANNELS 3 Yrotation Xrotation Zrotation
      JOINT Head
      {
       OFFSET 0.000000 8.936500 -0.011300
       CHANNELS 3 Yrotation Xrotation Zrotation
       End Site
       {
        OFFSET 0.000000 17.073600 -0.006000
       }
      }
     }
     JOINT RightCollar
     {
      OFFSET -2.921100 9.558500 0.000000
      CHANNELS 3 Yrotation Xrotation Zrotation
      JOINT RightShoulder
      {
       OFFSET -13.519700 0.000000 0.000000
       CHANNELS 3 Yrotation Xrotation Zrotation
       JOINT RightElbow
       {
        OFFSET 0.000000 -29.696600 0.000000
        CHANNELS 3 Yrotation Xrotation Zrotation
        JOINT RightWrist
        {
         OFFSET 0.000000 -24.004700 0.000000
         CHANNELS 3 Yrotation Xrotation Zrotation
         End Site
         {
          OFFSET 0.000000 -17.728500 0.000000
         }
        }
       }
      }
     }
     JOINT LeftCollar
     {
      OFFSET 2.921100 9.558500 0.000000
      CHANNELS 3 Yrotation Xrotation Zrotation
      JOINT LeftShoulder
      {
       OFFSET 13.519700 0.000000 0.000000
       CHANNELS 3 Yrotation Xrotation Zrotation
       JOINT LeftElbow
       {
        OFFSET 0.000000 -29.696600 0.000000
        CHANNELS 3 Yrotation Xrotation Zrotation
        JOINT LeftWrist
        {
         OFFSET 0.000000 -24.004700 0.000000
         CHANNELS 3 Yrotation Xrotation Zrotation
         End Site
         {
          OFFSET 0.000000 -17.728500 0.000000
         }
        }
       }
      }
     }
    }
   }
  }
 }
 JOINT RightHip
 {
  OFFSET -7.771700 -0.012900 -0.001300
  CHANNELS 3 Yrotation Xrotation Zrotation
  JOINT RightKnee
  {
   OFFSET 0.000000 -40.869800 0.001200
   CHANNELS 3 Yrotation Xrotation Zrotation
   JOINT RightAnkle
   {
    OFFSET 0.000000 -39.717900 0.002100
    CHANNELS 3 Yrotation Xrotation Zrotation
    JOINT RightToe
    {
     OFFSET 0.000000 -4.965400 11.033500
     CHANNELS 3 Yrotation Xrotation Zrotation
     End Site
     {
      OFFSET 0.000000 -1.423100 5.872300
     }
    }
   }
  }
 }
 JOINT LeftHip
 {
  OFFSET 7.771700 -0.012900 -0.001300
  CHANNELS 3 Yrotation Xrotation Zrotation
  JOINT LeftKnee
  {
   OFFSET 0.000000 -40.869800 0.001200
   CHANNELS 3 Yrotation Xrotation Zrotation
   JOINT LeftAnkle
   {
    OFFSET 0.000000 -39.717900 0.002100
    CHANNELS 3 Yrotation Xrotation Zrotation
    JOINT LeftToe
    {
     OFFSET 0.000000 -4.965400 11.033500
     CHANNELS 3 Yrotation Xrotation Zrotation
     End Site
     {
      OFFSET 0.000000 -1.423100 5.872300
     }
    }
   }
  }
 }
}
MOTION
Frames: 5
Frame Time: 0.008333
-8.531077 56.145125 18.193030 -175.981894 -32.165342 -10.139507 -1.436833 14.232173 6.629747 -0.976724 8.081830 2.233823 -1.157336 10.127676 2.777237 -0.956327 8.113675 2.221054 0.572754 18.990840 -3.004449 1.294570 -5.622105 -3.324991 3.950842 -0.998292 -2.169791 -3.806449 -11.770175 1.330744 76.117436 -42.546438 -56.488096 9.983743 10.284608 -16.546342 -10.250248 -0.204254 -5.112299 -3.308163 -10.486764 1.413203 -72.797689 -35.208685 64.262524 -0.573171 1.905557 0.456067 -18.841300 -27.470185 5.483415 57.225756 87.187985 55.477412 2.964756 -26.285143 -3.354554 -0.984683 2.680140 -0.436713 -10.974444 -42.911680 10.307467 176.593416 74.544703 174.550635 -1.526505 -25.240437 1.101017 -0.097836 -0.685327 -0.044517
-8.532768 56.147666 18.188030 -175.968251 -32.159098 -10.127003 -1.433920 14.241333 6.615346 -0.984016 8.082406 2.230299 -1.158240 10.127835 2.774175 -0.949680 8.107328 2.219067 0.580784 18.982366 -2.998433 1.301652 -5.631699 -3.320289 3.957352 -0.997280 -2.181156 -3.808042 -11.771431 1.333976 76.102611 -42.530420 -56.460963 9.951323 10.269537 -16.544857 -10.230238 -0.214323 -5.135051 -3.336507 -10.500130 1.446706 -72.787843 -35.256767 64.246949 -0.602291 1.909184 0.466049 -18.840426 -27.478690 5.462753 57.365511 87.194760 55.620266 2.956698 -26.285796 -3.355947 -0.977428 2.669470 -0.433061 -10.971709 -42.912646 10.263656 176.511404 74.549702 174.478896 -1.522055 -25.239368 1.084334 -0.096840 -0.688996 -0.044881
-8.535160 56.147838 18.185672 -175.927136 -32.118029 -10.118222 -1.458751 14.220003 6.592702 -0.988075 8.079488 2.226261 -1.158790 10.125667 2.771694 -0.945249 8.100388 2.219072 0.581915 18.977793 -2.990210 1.312638 -5.635842 -3.318013 4.002217 -0.981836 -2.213153 -3.851216 -11.783256 1.354112 76.077342 -42.530035 -56.444474 9.933019 10.258933 -16.528708 -10.242922 -0.218921 -5.125894 -3.345262 -10.567085 1.448724 -72.747289 -35.267091 64.170810 -0.581583 1.898672 0.499955 -18.870414 -27.518554 5.440053 57.563332 87.200714 55.817836 2.955046 -26.294865 -3.355240 -0.976220 2.664767 -0.432405 -11.002885 -42.950682 10.216457 176.433171 74.556258 174.406745 -1.513428 -25.236666 1.064595 -0.096376 -0.687553 -0.044774
-8.519745 56.132548 18.211409 -175.645058 -31.829982 -10.326505 -1.716418 13.987635 6.664551 -0.975864 8.084024 2.226850 -1.159717 10.120226 2.769505 -0.955005 8.092845 2.222221 0.579479 18.976256 -2.985124 1.334212 -5.633835 -3.320893 4.010243 -0.980455 -2.216882 -3.837256 -11.784093 1.335722 76.047343 -42.526123 -56.422035 9.906634 10.250442 -16.539064 -10.221644 -0.224440 -5.141674 -3.384916 -10.580844 1.470379 -72.733475 -35.289532 64.142550 -0.562565 1.891450 0.534816 -19.220034 -27.716598 5.604524 57.124015 87.205113 55.394976 2.916043 -26.262025 -3.366684 -0.939939 2.635394 -0.415545 -11.460612 -43.421180 10.403090 176.434080 74.412832 174.402283 -1.392123 -24.609116 1.058978 -0.195196 -1.212591 -0.090978
-8.518021 56.135104 18.204935 -175.625627 -31.801533 -10.321778 -1.729573 13.968880 6.653311 -0.964517 8.087087 2.226100 -1.158703 10.114162 2.768174 -0.964350 8.087105 2.226141 0.611080 18.981744 -2.988008 1.322846 -5.630382 -3.301899 4.017856 -0.978508 -2.219634 -3.821829 -11.787047 1.312812 76.011227 -42.536871 -56.404374 9.902595 10.242748 -16.499646 -10.201600 -0.234611 -5.153305 -3.424320 -10.593090 1.488398 -72.716273 -35.304073 64.104469 -0.543605 1.879731 0.556568 -19.235838 -27.738028 5.597028 57.223300 87.209177 55.495213 2.918562 -26.271920 -3.371025 -0.944598 2.632906 -0.415707 -11.504270 -43.436763 10.391024 176.380815 74.417509 174.342247 -1.380752 -24.614212 1.037371 -0.197317 -1.215530 -0.090998
